<svg viewBox="0 0 24 24" class="svg-icon margin-e-1">
    <path
        d="m12.1 3.393-7.127.164a1 1 0 0 0-.33.065 3.61 3.61 0 0 0-2.328 3.373v4.17c-.001 3.064-.039 3.588-.096 6.018a1 1 0 0 0 0 .078c.114 2.07 2.194 4.47 5.81 4.383h9.216c2.435 0 4.436-1.996 4.436-4.43v-.354a1.94 1.94 0 0 0 .967-1.664v-1.879a1.94 1.94 0 0 0-.967-1.664v-.58c0-2.434-2-4.434-4.436-4.434H15.62c.02-.342.035-.67.008-.994-.035-.432-.15-.913-.478-1.318-.329-.406-.808-.643-1.301-.766-.493-.122-1.037-.162-1.717-.168a1 1 0 0 0-.032 0zm.045 2-.031.002c.599.005 1.019.05 1.252.107.232.058.24.096.228.082-.01-.013.022.012.04.225.014.177.003.475-.018.83H6.75c-.897 0-1.735.274-2.436.738v-.382c0-.643.382-1.185.959-1.443zM6.75 8.639h10.49a2.433 2.433 0 0 1 2.436 2.434v.313h-.848a2.841 2.841 0 0 0-.783.113 2.833 2.833 0 0 0-.977.5c-.018.014-.037.026-.054.04l-.002.003a2.8 2.8 0 0 0-.205.187l-.002.002a2.82 2.82 0 0 0-.203.225l-.002.002c-.064.078-.125.16-.18.246l-.002.002a2.874 2.874 0 0 0-.152.266s-.002 0-.002.002a2.86 2.86 0 0 0-.295 1.537c.033.386.145.74.314 1.059v.002c.042.079.088.156.137.23v.002a2.993 2.993 0 0 0 1.203 1.03h.002a3.094 3.094 0 0 0 1.314.294h.736v.086a2.43 2.43 0 0 1-2.436 2.43H7.997a1 1 0 0 0-.023.002c-2.696.065-3.72-1.803-3.76-2.492.055-2.338.095-2.946.096-5.986v-.093A2.433 2.433 0 0 1 6.746 8.64zm.678 2.004a.875.875 0 0 0-.877.875.875.875 0 0 0 .877.875h6.396a.875.875 0 0 0 .875-.875.875.875 0 0 0-.875-.875zm11.4 2.742h1.816v1.742h-1.705c-.187 0-.367-.052-.52-.139h-.002a.971.971 0 0 1-.36-.351.713.713 0 0 1-.095-.3 1 1 0 0 0-.002-.013.81.81 0 0 1 .252-.674 1 1 0 0 0 .017-.02.803.803 0 0 1 .598-.245z"></path>
</svg>